<svg id="Layer_1" data-name="Layer 1" xmlns="http://www.w3.org/2000/svg" viewBox="0 0 120 120"><defs><style>.cls-1{fill:#0083c1;}.cls-2{fill:#fff;}</style></defs><title>Autonomous-Vehicle</title><circle id="_Path_" data-name=" Path " class="cls-1" cx="60" cy="60" r="60"/><path class="cls-2" d="M46.1,34.5a1.15,1.15,0,0,0,0,1.7,1.39,1.39,0,0,0,1.9,0,12.13,12.13,0,0,1,16.2,0,1.39,1.39,0,0,0,1.9,0,1,1,0,0,0,.4-.9,1.22,1.22,0,0,0-.4-.9,15,15,0,0,0-10-3.8A15.58,15.58,0,0,0,46.1,34.5Zm4,3.6a1.15,1.15,0,0,0,0,1.7,1.39,1.39,0,0,0,1.9,0,6.2,6.2,0,0,1,4.1-1.6,6,6,0,0,1,4.1,1.6,1.39,1.39,0,0,0,1.9,0,1,1,0,0,0,.4-.9,1.22,1.22,0,0,0-.4-.9,8.64,8.64,0,0,0-6-2.3A10.38,10.38,0,0,0,50.1,38.1ZM42,32.4a1.39,1.39,0,0,0,1.9,0,18.33,18.33,0,0,1,24.4.1,1.39,1.39,0,0,0,1.9,0,1,1,0,0,0,.4-.9,1.22,1.22,0,0,0-.4-.9,21.12,21.12,0,0,0-28.1-.1A1.19,1.19,0,0,0,42,32.4Z"/><path class="cls-2" d="M38.2,67.2a7.3,7.3,0,1,0,7.1,7.3A7.24,7.24,0,0,0,38.2,67.2Zm0,12a4.57,4.57,0,0,1-4.5-4.6A4.5,4.5,0,0,1,38.2,70a4.57,4.57,0,0,1,4.5,4.6A4.7,4.7,0,0,1,38.2,79.2Zm65-10.4a.75.75,0,0,0-.7-.6c-.3,0-.3,0-.3-2.2,0-4.1-12.8-7.5-21-8.3-.3-.2-1-.7-1.5-1.1C73.1,49.7,65.6,45.2,53,45.2c-11.3,0-19.1,4.7-27.3,11.9a1.09,1.09,0,0,0-.4.2H20.7c-.9,0-.2.7-.5,1.7a8.79,8.79,0,0,0-.5,2.9v2.5a5.35,5.35,0,0,0-1.6,2.8c-.4,1.2.3,2.8.6,4.4.8,3.3-2,5.7,11.6,5.7a8.68,8.68,0,0,1-.5-2.8,8.31,8.31,0,1,1,16.6,0,9.48,9.48,0,0,1-.7,3.5c18.5-.6,27.3-.1,33.6,0a8.63,8.63,0,0,1-.8-3.6,8.31,8.31,0,1,1,16.6,0,7.46,7.46,0,0,1-.4,2.6h6.6a1.64,1.64,0,0,0,1.6-1.6,22.92,22.92,0,0,0,.5-3.6A16.17,16.17,0,0,0,103.2,68.8ZM22.1,64.4H20.2a21.48,21.48,0,0,1,.3-4.8c.2-.8.4-.9,2-.9h2.1S22.8,60,22.1,64.4Zm19.6-6.3c-2.6-.1-7-2.3-7-2.3,5.5-5.7,9.8-8.3,20.3-8.4l.2,11.1Zm17.9.6L57.8,47.6c10.8.6,16.6,5.1,22.3,11.7Zm42.3,9.4a4.91,4.91,0,0,1-1.2-.3c-.4-.2-1.3-.7-1.3-1.4s-.3-3.4,0-3.2c2.1.9,2.6,2.1,2.6,2.7S101.9,68.1,101.9,68.1Zm-15.1-.9a7.3,7.3,0,1,0,7.1,7.3A7.24,7.24,0,0,0,86.8,67.2Zm0,12a4.57,4.57,0,0,1-4.5-4.6A4.5,4.5,0,0,1,86.8,70a4.6,4.6,0,0,1,0,9.2Z"/><path class="cls-2" d="M59.39,46a2.87,2.87,0,0,0,.4-1.21,3.59,3.59,0,0,0-3.64-3.44,3.76,3.76,0,0,0-3.84,3.23c0,.4.2.81.2,1.21Z"/></svg>