<?xml version="1.0" encoding="utf-8"?>
<!-- Generator: Adobe Illustrator 19.2.1, SVG Export Plug-In . SVG Version: 6.00 Build 0)  -->
<svg version="1.1" id="Layer_1" xmlns="http://www.w3.org/2000/svg" xmlns:xlink="http://www.w3.org/1999/xlink" x="0px" y="0px"
	 viewBox="0 0 117.1 117" style="enable-background:new 0 0 117.1 117;" xml:space="preserve">
<circle style="fill:#0047C3;" cx="58.5" cy="58.5" r="58.5"/>
<path style="fill:#04338B;" d="M114.9,42.5c-40.5,1-74.1,30.1-82,68.5c7.8,3.8,16.5,6,25.8,6c32.3,0,58.5-26.2,58.5-58.5
	C117.1,52.9,116.3,47.6,114.9,42.5z"/>
<path style="fill:#FFFFFF;" d="M54.6,56.8C54.6,47.5,47,40,37.8,40c-9.3,0-16.8,7.5-16.8,16.8c0,2.9,0.8,5.7,2.1,8.1h0c0,0,0,0,0,0
	c0.4,0.8,0.9,1.5,1.5,2.2C29.2,74.1,33,80,35.4,85.3c0.9,2,3.8,2,4.7,0C42.5,80,46.3,74.1,51,67.2c0.6-0.7,1.1-1.5,1.5-2.2
	c0,0,0,0,0,0h0C53.8,62.5,54.6,59.7,54.6,56.8z M37.8,64.1c-4,0-7.3-3.3-7.3-7.3c0-4,3.3-7.3,7.3-7.3c4,0,7.3,3.3,7.3,7.3
	C45,60.8,41.8,64.1,37.8,64.1z"/>
<path style="fill:#FFFFFF;" d="M90.1,37c0-5.9-4.8-10.7-10.7-10.7c-5.9,0-10.7,4.8-10.7,10.7c0,1.9,0.5,3.6,1.3,5.1h0c0,0,0,0,0,0
	c0.3,0.5,0.6,1,0.9,1.4C74,48,76.4,51.7,77.9,55c0.6,1.3,2.4,1.3,3,0c1.5-3.3,4-7.1,6.9-11.5c0.4-0.4,0.7-0.9,0.9-1.4c0,0,0,0,0,0h0
	C89.6,40.6,90.1,38.9,90.1,37z M79.4,41.6c-2.5,0-4.6-2.1-4.6-4.6s2.1-4.6,4.6-4.6S84,34.5,84,37S82,41.6,79.4,41.6z"/>
<g>
	<path style="fill:#FFA60A;" d="M51.3,76.4c32.5,0.7,23.8-4.9,19-7.8c-4.8-2.9-9.9-7.9,3.5-10l3.1,0.7c0,0-9.5,2.1-5.7,4.5
		c3.8,2.4,20.6,13.3,7.4,18.2c-13.2,4.9-29.7,3.9-29.7,3.9L51.3,76.4z"/>
</g>
</svg>
