<svg xmlns="http://www.w3.org/2000/svg" viewBox="0 0 500 500" enable-background="new 0 0 500 500"><style type="text/css">.st0{fill:#F16826;} .st1{fill:#FFFFFF;}</style><circle cx="250" cy="250" r="250" class="st0"/><path d="M362.8 272.7c-21.3 0-38.6 17.3-38.6 38.6s17.3 38.6 38.6 38.6 38.6-17.3 38.6-38.6c.1-21.3-17.2-38.6-38.6-38.6zm0 56.6c-9.9 0-18-8.1-18-18s8.1-18 18-18 18 8.1 18 18c0 10-8.1 18-18 18zM139.3 272.7c-21.3 0-38.6 17.3-38.6 38.6s17.3 38.6 38.6 38.6 38.6-17.3 38.6-38.6-17.3-38.6-38.6-38.6zm0 56.6c-9.9 0-18-8.1-18-18s8.1-18 18-18 18 8.1 18 18c-.1 10-8.1 18-18 18zM392.8 235.5c-23.9-9.6-38.3-11.8-45.2-12.2-1.4-.1-2.5-.1-3.3-.1-1.5-.3-3.1-1-4.3-2.6-4.2-5.3-10.8-16.7-21.5-29-24.9-28.6-22.9-24.2-31-28.5-1.6-.9-9.7-5.1-26.4-8.1-.4-.1-15.2-3.8-41.1-4.4-14.8-.5-45.3-1.1-69 .2-4.7.3-5 4.2-5 4.2-.5 4.7-5.1 7.8-5.1 7.8-58 42.1-62.8 93.2-62.8 93.2S63 280 63 292.3c0 25.4 10.3 29.9 10.3 29.9H91c-.8-3.5-1.2-7.2-1.2-10.9 0-28 22.7-50.7 50.7-50.7 28 0 50.7 22.7 50.7 50.7 0 3.7-.4 7.4-1.2 10.9h124.5c-.8-3.5-1.2-7.2-1.2-10.9 0-28 22.7-50.7 50.7-50.7 28 0 50.7 22.7 50.7 50.7 0 3.7-.4 7.4-1.2 10.9H424.4s12.5-.3 12.5-17.9c.1-27.4-8.3-54.5-44.1-68.8zm-194.1-18.9s-.8 6.4-8.4 6.4h-36.7c-5.2-.2-16.7-4.5-20.2-12.6-3.6-8.5 17.6-29.9 19.1-31.1 1.3-1.1 2.7-2.1 4-3.1 1.5-1 3-1.9 4.5-2.7v-.1c10.9-4.6 18.2-7.5 30.5-7.8.8 0 7.1.6 7.1 8.1v42.9zm113.7 6.4h-97.7v-56.9c15.2.7 26.4.6 35 1.5 4.3.4 7.8.7 9.8 1.1 5.5 1 9.8 2.1 13.1 3.1.1 0 10.2 4.2 17.3 10.5 7.5 6.5 14.5 16.4 24.9 32.2 5.8 8.7-.2 8.5-2.4 8.5z" class="st1"/></svg>