<svg xmlns="http://www.w3.org/2000/svg" viewBox="0 0 57.98 57.98"><defs><style>.cls-1{fill:#333e53;}.cls-2{fill:#999;}.cls-3{fill:#f2f2f2;}.cls-4{fill:#1a2231;}</style></defs><title>phone-icon</title><g id="Layer_2" data-name="Layer 2"><g id="Layer_1-2" data-name="Layer 1"><circle class="cls-1" cx="28.99" cy="28.99" r="28.99"/><path class="cls-2" d="M39.6,46a3.06,3.06,0,0,1-3.07,3L21,48.92a3.07,3.07,0,0,1-3-3.07l.16-33.72a3.06,3.06,0,0,1,3.07-3l15.52.07a3.06,3.06,0,0,1,3,3.07Z"/><path class="cls-3" d="M31.13,12.75a.33.33,0,0,1-.34.33l-3.62,0a.33.33,0,0,1-.33-.34V12.6a.34.34,0,0,1,.34-.33l3.63,0a.33.33,0,0,1,.33.33Z"/><circle class="cls-3" cx="28.78" cy="45.85" r="1.68" transform="translate(-17.21 74.41) rotate(-89.71)"/><path class="cls-2" d="M28.62,46.57a.58.58,0,0,1-.52-.58v-.24a.58.58,0,0,1,.58-.57h.24a.57.57,0,0,1,.57.58V46a.57.57,0,0,1-.57.57h-.28Zm.32-1.23h-.25a.44.44,0,0,0-.44.43V46a.44.44,0,0,0,.43.44h.22a.44.44,0,0,0,.44-.43v-.22A.43.43,0,0,0,28.94,45.34Z"/><rect class="cls-3" x="10.57" y="24.35" width="27.29" height="9.29" transform="translate(-4.89 53.07) rotate(-89.73)"/><rect class="cls-3" x="19.89" y="24.36" width="27.29" height="9.35" transform="translate(4.34 62.43) rotate(-89.72)"/><path class="cls-4" d="M58,29a29,29,0,0,0-1.22-8.31L39.2,10.47a3,3,0,0,1,.56,1.77L39.6,46a3.06,3.06,0,0,1-3.07,3L21,48.92h-.26L35.2,57.3A29,29,0,0,0,58,29Z"/></g></g></svg>