<?xml version="1.0" encoding="utf-8"?>
<!-- Generator: Adobe Illustrator 19.1.0, SVG Export Plug-In . SVG Version: 6.00 Build 0)  -->
<svg version="1.1" id="Layer_1" xmlns="http://www.w3.org/2000/svg" xmlns:xlink="http://www.w3.org/1999/xlink" x="0px" y="0px"
	 viewBox="0 0 100 100" style="enable-background:new 0 0 100 100;" xml:space="preserve">
<style type="text/css">
	.st0{fill:#CEDC1C;}
	.st1{fill:#FFFFFF;}
</style>
<circle class="st0" cx="49.9" cy="49.9" r="43.5"/>
<rect x="120.3" y="44.8" class="st0" width="17" height="17"/>
<g>
	<g>
		<path class="st1" d="M190.1,49.8c0-8.4,0-16.9,0-25.3c0-4.8,2.8-7.7,7.6-7.7c10.4,0,20.8,0,31.2,0c3.2,0,6,0.9,8.1,3.5
			c1.6,2,3.3,3.7,5.1,5.6c1.6,1.7,2.4,3.7,2.4,6c0,14.5,0,29,0,43.5c0,4.2-2.7,7-6.9,7c-13.5,0-26.9,0-40.4,0c-4.2,0-7-2.8-7-7.1
			C190.1,66.9,190.1,58.3,190.1,49.8z M194.4,49.7c0,8.4,0,16.9,0,25.3c0,2.2,0.8,3.2,2.8,3.2c13.4,0,26.8,0,40.2,0
			c1.8,0,2.6-0.9,2.6-2.6c0-13.2,0-26.3,0-39.5c0-1-0.4-1.2-1.3-1.2c-1.5,0-3,0-4.4,0c-3.1-0.1-5.5-2.5-5.5-5.6c0-2,0-4,0-6.1
			c0-1.9,0-1.9-2-1.9c-9.6,0-19.2,0-28.8,0c-2.8,0-3.5,0.8-3.5,3.5C194.4,33,194.4,41.4,194.4,49.7z M233.1,22.6
			c0,2.5-0.1,4.5,0.1,6.6c0,0.5,0.8,1.2,1.3,1.3c1.7,0.2,3.4,0.1,5.1,0.1c0.1-0.1,0.2-0.3,0.3-0.4C237.7,27.7,235.6,25.3,233.1,22.6
			z"/>
		<path class="st1" d="M217.5,37.2c7,0,12.6,5.6,12.6,12.6c0,7-5.6,12.6-12.6,12.6c-7,0-12.6-5.6-12.6-12.6
			C204.9,42.8,210.6,37.2,217.5,37.2z"/>
		<path class="st1" d="M217.2,68.8c-4.5,0-9,0-13.4,0c-1.4,0-2.2-0.8-2.2-2c0-1.3,0.7-2.1,2.1-2.2c0.4,0,0.9,0,1.3,0
			c8.2,0,16.4,0,24.7,0c0.3,0,0.7,0,1,0c1.5,0.1,2.5,0.9,2.4,2.2c0,1.2-1,2-2.4,2C226.2,68.9,221.7,68.8,217.2,68.8z"/>
		<path class="st1" d="M212.2,34.8c-2.7,0-5.4,0-8.1,0c-1.7,0-2.5-0.7-2.5-2c0-1.4,0.9-2.3,2.5-2.3c5.4,0,10.8,0,16.2,0
			c1.6,0,2.6,0.9,2.5,2.2c0,1.3-0.9,2.1-2.5,2.1C217.6,34.8,214.9,34.8,212.2,34.8z"/>
	</g>
	<g>
		<path class="st0" d="M216.1,59.3V57c-1.6-0.1-3.2-0.5-4.1-1l0.7-2.8c1,0.6,2.4,1.1,4,1.1c1.4,0,2.3-0.5,2.3-1.5
			c0-0.9-0.8-1.5-2.5-2.1c-2.6-0.9-4.3-2.1-4.3-4.4c0-2.1,1.5-3.8,4.1-4.3v-2.3h2.4v2.1c1.6,0.1,2.7,0.4,3.5,0.8l-0.7,2.7
			c-0.6-0.3-1.7-0.8-3.5-0.8c-1.6,0-2.1,0.7-2.1,1.3c0,0.8,0.8,1.3,2.9,2.1c2.9,1,4,2.3,4,4.5c0,2.1-1.5,4-4.3,4.4v2.5H216.1z"/>
	</g>
</g>
<g id="eHJ5Gs.tif">
	<g>
		<path class="st1" d="M-52.7,17.8c2.3,4,4.6,7.9,6.8,11.7c2.1,3.6,4.2,7.3,6.4,10.9c0.4,0.7,0.5,1.2,0,1.9
			c-5.9,9.4-14.1,15.4-25.3,17c-2.7,0.4-5.4,0.3-8.1,0.2c-4.8-0.2-9.7-0.2-14.3,1.3c-3.8,1.2-7.2,3.2-9.4,6.9
			c-0.2-0.3-0.4-0.5-0.5-0.8c-3.9-7.2-7.8-14.4-11.7-21.6c-0.4-0.7-0.3-1.2,0.1-1.9c4.9-6.7,11.3-10.9,19.6-11.8c3-0.3,6-0.2,9,0
			c5.2,0.4,10.1-0.7,14.7-3c4.7-2.4,8.6-5.8,12-9.8C-53.3,18.5-53.1,18.3-52.7,17.8z M-64.4,54c-0.6-1-1.1-1.7-1.6-2.5
			c0.5-0.7,1-1.3,1.4-1.9c1-1.7,1.1-3.4,0.2-5.1c-1.2-2.4-3.4-3.2-6.4-2.7c-1.3,0.2-2.5,0.5-3.8,0.6c-0.5,0-1.2-0.4-1.3-0.7
			c-0.2-0.4,0-1.3,0.3-1.6c1-0.8,2.2-1.3,3.3-1.9c0.5-0.2,1.1-0.3,1.7-0.4c-0.4-1.2-0.7-2.2-1.1-3.5c-1.5,0.5-2.8,1-4.1,1.5
			c-0.4-0.6-0.9-1.3-1.4-2c-0.9,0.6-1.7,1.1-2.5,1.6c0.5,0.9,1,1.6,1.4,2.3c-0.4,0.5-0.8,0.9-1.1,1.4c-2,3.1-0.7,7,2.7,7.8
			c1,0.2,2.1,0.1,3.1,0c1.2-0.1,2.5-0.5,3.7-0.5c0.6,0,1.4,0.5,1.6,0.9c0.2,0.4,0,1.4-0.4,1.7c-0.9,0.8-2,1.4-3,1.9
			c-0.8,0.4-1.8,0.5-2.8,0.7c0.3,1,0.6,1.9,1,2.8c0.1,0.2,0.6,0.5,0.9,0.4c1.4-0.4,2.8-0.8,4.2-1.3c0.4,0.6,0.9,1.3,1.5,2.1
			C-66.1,55.1-65.3,54.6-64.4,54z"/>
		<path class="st1" d="M-107.9,53.6c3.9,7.3,7.6,14.3,11.5,21.5c0.3-0.7,0.5-1.1,0.7-1.5c2.9-5.7,7.8-8.7,13.9-10.1
			c4.2-1,8.4-0.7,12.6-0.5c10.5,0.6,19.5-2.7,26.4-10.8c0.1-0.2,0.3-0.3,0.5-0.6c0.5,0.9,1.1,1.8,1.5,2.7c0.1,0.3,0,0.8-0.2,1.2
			c-2.6,4.6-6.6,7.5-11.4,9.4c-5.2,2-10.6,2.5-16.2,2.1c-4.7-0.4-9.4-0.3-13.9,1.4c-6.3,2.4-10.7,6.9-13.4,13.1
			c-0.1,0.3-0.3,0.7-0.5,1c0,0-0.1,0-0.2,0.1c-1.6-2.9-3.1-5.7-4.7-8.5c-2.8-5.2-5.6-10.4-8.4-15.5c-0.6-1-0.6-1.9,0.1-2.8
			C-109,55.1-108.5,54.5-107.9,53.6z"/>
	</g>
</g>
<g>
	<path class="st1" d="M71.6,66.8c-1.5,0-2.8,0-4.1-0.1c-0.5,0-1-0.2-1.5-0.2c-0.7-0.1-1.4-0.1-2.1-0.1c-1,0-1.9,0-2.9,0
		c-1.4,0-2.7,0-4.1,0.1c-2.2,0-4.3,0.1-6.5,0.1c-1.5,0-3,0-4.5-0.1c-2.9,0-5.8-0.1-8.8-0.1c-0.6,0-1.3,0-1.9,0
		c-0.6,0-1.3,0.1-1.9,0.2c-0.6,0.1-1.3,0.2-1.9,0.2c-1.8,0-3.6,0-5.4,0c-1.4,0-2.8-0.1-4.3-0.2c-1-0.1-2.1-0.1-3.1-0.2
		c-0.5,0-1-0.1-1.6-0.2c-0.3,0-0.6-0.3-0.6-0.7c0-0.9,0-1.8-0.1-2.6c0-0.7-0.1-1.4-0.2-2.1c-0.1-0.8-0.1-1.5-0.2-2.3
		c-0.1-1.1-0.2-2.2-0.2-3.3c0-1.5,0-3,0-4.5c0-0.8,0-1.5,0.1-2.3c0.1-1.1,0.1-2.2,0.9-3.1c0.3-0.4,0.7-0.9,1.1-1.3
		c1.3-1.6,2.6-3.3,4-4.9c1.2-1.4,1.9-3,2.7-4.5c1.3-2.3,2.6-4.6,4.2-6.7c0.3-0.5,0.7-0.9,1.1-1.3c0.5-0.6,1.2-0.7,1.9-0.9
		c1.2-0.2,2.4-0.4,3.6-0.6c1.1-0.2,2.3-0.3,3.4-0.4c1.2-0.1,2.5-0.2,3.7-0.3c0.7-0.1,1.4-0.1,2.1-0.1c3,0,6-0.1,9,0
		c1.5,0,3,0.1,4.5,0.2c1.7,0.1,3.4,0.3,5,0.5c1.8,0.2,3.6,0.5,5.4,0.8c0.8,0.1,1.3,0.6,1.8,1.2c1.4,1.8,2.6,3.7,3.8,5.6
		c0.8,1.4,1.6,2.9,2.4,4.3c0.5,0.9,1.1,1.6,1.7,2.4c1.2,1.5,2.4,2.9,3.5,4.4c0.3,0.4,0.6,0.7,0.9,1.1c0.7,0.7,1,1.6,1.1,2.6
		c0.2,2,0.3,3.9,0.3,5.9c0,1.3-0.1,2.5-0.2,3.8c-0.1,1.3-0.2,2.6-0.3,3.9c-0.1,1.5-0.2,3-0.2,4.5c0,0.5-0.2,0.7-0.7,0.8
		c-1.1,0.1-2.1,0.2-3.2,0.3c-0.9,0.1-1.7,0.1-2.6,0.2C75.2,66.7,73.3,66.7,71.6,66.8z M69,48.2c0-0.1,0-0.1,0-0.2
		c0.2-0.6,0.4-1.2,0.7-1.7c1.4-3.1,3.6-5.8,6-8.3c0.4-0.4,0.5-0.5,0.2-1c0-0.1-0.1-0.2-0.1-0.3c-0.5-1-1-1.9-1.6-2.9
		c-1.2-2.1-2.4-4.1-3.9-6c-0.5-0.6-1-1.2-1.9-1.4c-0.7-0.2-1.3-0.3-2-0.4c-2-0.2-3.9-0.5-5.9-0.7c-1.6-0.2-3.2-0.2-4.7-0.3
		C54.2,25,52.7,25,51.2,25c-1.8,0-3.7,0-5.5,0.1c-0.7,0-1.5,0.1-2.2,0.1c-1.3,0.1-2.7,0.2-4,0.3c-1.1,0.1-2.2,0.2-3.3,0.3
		c-1.3,0.2-2.6,0.4-3.8,0.6c-0.7,0.1-1.3,0.4-1.8,0.9c-0.5,0.6-1,1.2-1.4,1.8c-1.8,2.5-3.3,5.2-4.7,7.9c-0.1,0.2-0.2,0.4-0.2,0.5
		c0,0.1,0,0.2,0.1,0.3c1.2,1.2,2.3,2.4,3.3,3.7c1.5,1.9,2.7,3.9,3.5,6.2c0.1,0.2,0.1,0.3,0.1,0.5c-2.4-0.7-4.7-1.3-7.1-1.9
		c-1.8-0.5-3.5-1-5.3-1.4c-0.5-0.1-0.9,0-1.1,0.5c-0.1,0.3-0.2,0.6-0.2,1c0,1,0,2,0,3c0,0.5,0,0.5,0.5,0.6c1.9,0.4,3.8,0.8,5.7,1.2
		c1.2,0.2,2.3,0.4,3.5,0.5c0.9,0.1,1.7,0.2,2.6,0.4c0.6,0.1,1.3,0.2,1.9,0.2c0.3,0,0.4-0.1,0.4-0.4c-0.1-0.5-0.2-1.1-0.3-1.6
		c-0.2-1.1-0.4-2.2-0.8-3.2c-0.1-0.2-0.1-0.3-0.2-0.5c12.8,0,25.5,0,38.3,0c0,0,0,0.1,0,0.1c-0.8,1.7-1,3.5-1.3,5.3
		c0,0.3,0,0.3,0.3,0.3c0.4,0,0.9-0.1,1.3-0.2c1.1-0.1,2.3-0.3,3.4-0.4c1.4-0.2,2.8-0.4,4.2-0.7c1.7-0.3,3.3-0.7,5-1
		c0.3-0.1,0.4-0.2,0.4-0.5c0-1,0-2.1,0-3.1c0-0.3-0.1-0.6-0.2-0.9c-0.2-0.5-0.6-0.6-1.1-0.5c-3.2,0.9-6.4,1.7-9.5,2.6
		C70.8,47.7,69.9,48,69,48.2z M50.1,48.2c-3.6,0-7.3,0-10.9,0c-1.7,0-3.4,0-5.1,0c-0.5,0-0.7,0.2-0.6,0.7c0.1,1,0.3,1.9,0.4,2.9
		c0.1,0.4,0.2,0.6,0.6,0.8c1.1,0.5,2.2,1.1,3.4,1.6c0.2,0.1,0.4,0.2,0.6,0.2c7.8,0,15.5,0,23.3,0c0.2,0,0.4,0,0.5-0.1
		c1.2-0.6,2.4-1.2,3.6-1.7c0.2-0.1,0.4-0.3,0.4-0.5c0.1-0.7,0.2-1.4,0.3-2c0.1-0.4,0.1-0.8,0.2-1.2c0-0.3-0.2-0.5-0.5-0.5
		c-0.1,0-0.2,0-0.3,0C60.7,48.2,55.4,48.2,50.1,48.2z M50.2,59.5c-4.9,0-9.7,0-14.6,0c-0.6,0-0.6-0.1-0.5,0.5
		c0.1,0.5,0.2,0.4,0.5,0.4c8.9,0,17.8,0,26.7,0c0.2,0,0.3,0,0.5,0c0.5,0,1,0,1.6,0c0.6,0,0.7-0.1,0.8-0.6c0,0,0-0.1,0-0.1
		c0.1-0.2,0-0.3-0.2-0.3c-0.6,0-1.1,0-1.7,0C58.9,59.5,54.5,59.5,50.2,59.5z M50.1,60.9c-4.8,0-9.5,0-14.3,0c-0.7,0-0.6,0-0.5,0.6
		c0.1,0.4,0.1,0.4,0.5,0.4c9.4,0,18.8,0,28.2,0c0.7,0,0.7,0,0.9-0.7c0.1-0.2,0-0.3-0.3-0.3c-0.7,0-1.5,0-2.2,0
		C58.4,60.9,54.2,60.9,50.1,60.9z M50.1,62.2C50.1,62.2,50.1,62.2,50.1,62.2c-4.6,0-9.3,0-13.9,0c-0.7,0-0.7,0-0.5,0.6
		c0,0.3,0.2,0.3,0.4,0.3c2,0,4,0,6,0c7.2,0,14.5,0,21.7,0c0.7,0,0.7,0,0.8-0.6c0.1-0.3,0.1-0.3-0.3-0.3c-1.2,0-2.4,0-3.7,0
		C57.2,62.2,53.7,62.2,50.1,62.2z M52.5,64.5C52.5,64.5,52.5,64.5,52.5,64.5c1.5,0,3,0,4.5,0c2.2,0,4.4,0,6.6,0c0.7,0,0.7,0,0.8-0.6
		c0.1-0.3,0-0.3-0.3-0.3c-1.8,0-3.5,0-5.3,0c-6.5,0-12.9,0-19.4,0c-1.1,0-2.1,0-3.2,0c-0.4,0-0.4,0-0.3,0.4c0,0.1,0.1,0.2,0.1,0.3
		c0,0.2,0.1,0.3,0.4,0.3c1.6,0,3.3,0,4.9,0C45,64.5,48.8,64.5,52.5,64.5z M68,64.2C68,64.2,68,64.2,68,64.2c0.1,0.1,0.2,0.1,0.3,0.1
		c1.7-0.1,3.4-0.1,5-0.2c1.2-0.1,2.5-0.2,3.7-0.4c1.5-0.3,3.1-0.7,4.6-1c0.3-0.1,0.3-0.2,0.2-0.5c0-0.1-0.1-0.2-0.2-0.3
		c-1-1-2-1.9-3-2.9c-0.2-0.2-0.5-0.3-0.7-0.3c-1,0-2,0.1-3,0.1c-1.5,0.1-3,0.1-4.4,0.2c-0.8,0-1.6,0.1-2.3,0.1
		c-0.1,0-0.1,0.1-0.2,0.1c0,0,0,0.1,0,0.1c2.3-0.1,4.7-0.2,7-0.3c0,0.1,0.1,0.2,0.1,0.3c0.5,0.8,0.9,1.6,1.4,2.4
		c0.1,0.2,0.4,0.4,0.6,0.4c0.9,0.2,1.9,0.3,2.8,0.4c0.3,0,0.6,0.1,1,0.1c-0.2,0.1-0.3,0.1-0.4,0.2c-2.1,0.6-4.3,0.9-6.6,1.1
		c-1.8,0.2-3.6,0.3-5.4,0.3c-0.1,0-0.3,0-0.4,0C68.1,64.1,68,64.1,68,64.2z M32.2,59.2c0,0,0-0.1,0-0.1c-0.1,0-0.1-0.1-0.2-0.1
		c-1.5-0.1-3-0.1-4.4-0.2c-1.7-0.1-3.5-0.1-5.2-0.2c-0.3,0-0.6,0.1-0.8,0.3c-0.9,0.8-1.7,1.7-2.6,2.5c-0.2,0.2-0.4,0.4-0.5,0.6
		c-0.2,0.3-0.1,0.5,0.3,0.6c0.1,0,0.2,0.1,0.3,0.1c2.5,0.7,5.1,1.1,7.7,1.4c1.1,0.1,2.3,0.2,3.4,0.2c0.7,0,1.3,0,2,0
		c0.1,0,0.1,0,0.2-0.1c0,0,0-0.1,0-0.1c-4.4,0-8.7-0.4-13-1.5c0.1,0,0.1-0.1,0.1-0.1c1.1-0.1,2.2-0.3,3.3-0.4c0.4,0,0.7-0.1,0.9-0.4
		c0.5-0.9,1.1-1.9,1.6-2.8C27.5,59,29.9,59.1,32.2,59.2z M79,51.9C79,51.9,79,51.9,79,51.9c-0.1-0.1-0.1-0.1-0.2-0.1
		c-1,0.2-1.9,0.3-2.9,0.5c-1.1,0.2-2.2,0.3-3.2,0.4c-0.9,0.1-1.8,0.2-2.7,0.3c-0.9,0.1-1.8,0.2-2.6,0.3c-0.5,0.1-1,0-1.5,0.3
		c-1.2,0.6-2.4,1.1-3.6,1.7c-0.2,0.1-0.5,0.2-0.7,0.2c-7.6,0-15.2,0-22.8,0c-0.2,0-0.5-0.1-0.7-0.1c-1.2-0.6-2.4-1.1-3.6-1.7
		c-0.2-0.1-0.4-0.1-0.6-0.2c-0.4-0.1-0.7-0.1-1.1-0.1c-1-0.1-2-0.2-3-0.4c-1.2-0.1-2.3-0.3-3.5-0.4c-1.6-0.2-3.2-0.5-4.8-0.8
		c-0.1,0-0.1,0-0.2,0.1c0.1,0,0.1,0.1,0.2,0.1c0.8,0.1,1.7,0.3,2.5,0.4c1.2,0.2,2.4,0.4,3.6,0.5c0.9,0.1,1.9,0.2,2.8,0.3
		c0.9,0.1,1.8,0.2,2.7,0.3c0.6,0.1,1.2,0.1,1.8,0.4c1.1,0.5,2.1,1,3.2,1.5c0.2,0.1,0.4,0.1,0.6,0.1c7.7,0,15.3,0,23,0
		c0.2,0,0.4-0.1,0.6-0.1c0.7-0.3,1.4-0.7,2.1-1c0.9-0.4,1.7-0.9,2.8-1c1,0,2-0.2,3-0.3c0.9-0.1,1.8-0.2,2.8-0.3
		c1-0.1,1.9-0.3,2.9-0.4c1-0.2,2.1-0.3,3.1-0.5C78.9,52,79,52,79,51.9z"/>
	<path class="st1" d="M75,67c1.5-0.1,2.9-0.2,4.3-0.3c1.4-0.1,2.8-0.1,4.2-0.5c0,0,0,0.1,0,0.2c0,1,0,1.9,0,2.9
		c0,1.1-0.9,1.7-1.8,1.7c-1.7,0-3.4,0-5.1,0c-0.9,0-1.7-0.7-1.7-1.7C75,68.6,75,67.8,75,67z"/>
	<path class="st1" d="M16.7,66.2c0.4,0.3,1,0.3,1.4,0.3c1,0.1,2,0.2,2.9,0.3c0.7,0.1,1.4,0.1,2.1,0.1c0.6,0,1.2,0,1.8,0.1
		c0.1,0,0.1,0,0.3,0c0,0.2,0,0.4,0,0.6c0,0.6,0,1.3,0,1.9c0,0.9-0.7,1.6-1.6,1.6c-1.7,0-3.5,0-5.2,0c-0.8,0-1.7-0.5-1.7-1.6
		C16.7,68.4,16.7,67.3,16.7,66.2C16.7,66.2,16.7,66.2,16.7,66.2z"/>
	<path class="st1" d="M77.6,37.8c0.1-0.2,0.1-0.4,0.2-0.6c0-0.7,0.1-1.5,0.1-2.2c0-0.7,0.6-1.2,1.3-1.2c1,0,2,0,3,0c0.3,0,0.7,0,1,0
		c0.5,0,1,0.4,1.2,0.9c0.1,0.5,0.3,1,0.4,1.5c0.1,0.5-0.1,0.8-0.6,1c-1.5,0.3-3.1,0.6-4.6,0.9c-0.4,0.1-0.8,0.1-1.2,0.2
		c-0.2,0.1-0.3,0-0.5-0.2C77.7,38,77.6,37.8,77.6,37.8z"/>
	<path class="st1" d="M22.7,37.8c-0.1,0.1-0.2,0.3-0.3,0.4c-0.1,0.1-0.2,0.1-0.3,0.1c-1.6-0.3-3.1-0.6-4.7-1
		c-0.4-0.1-0.8-0.2-1.2-0.3c-0.4-0.1-0.7-0.4-0.6-0.7c0.1-0.7,0.3-1.3,0.5-1.9c0.2-0.4,0.5-0.7,1-0.7c1.2,0,2.3,0,3.5-0.1
		c0.6,0,1.1,0.1,1.5,0.5c0.2,0.2,0.3,0.5,0.3,0.7c0.1,0.8,0.1,1.5,0.1,2.3C22.6,37.4,22.6,37.5,22.7,37.8z"/>
	<path class="st1" d="M66.1,48.9c-10.7,0-21.3,0-31.9,0c0,0.1,0,0.1,0,0.2c0.1,0.9,0.3,1.7,0.4,2.6c0,0.1,0.1,0.2,0.2,0.3
		c1.1,0.6,2.2,1.1,3.3,1.6c0.1,0.1,0.3,0.1,0.5,0.1c7.6,0,15.3,0,22.9,0c0.2,0,0.4,0,0.5-0.1c1.1-0.5,2.2-1,3.2-1.5
		c0.2-0.1,0.3-0.2,0.3-0.5c0.1-0.4,0.1-0.9,0.2-1.3C66,49.8,66,49.4,66.1,48.9z"/>
	<path class="st1" d="M76.5,60.4c0,0.8,0.6,1.3,1.4,1.4c0.8,0,1.4-0.6,1.4-1.3c0-0.7-0.7-1.4-1.4-1.4C77.1,59.1,76.5,59.7,76.5,60.4
		z"/>
	<path class="st1" d="M75.4,37.9c-0.7,0.7-1.3,1.4-1.9,2.1c-1.6,1.8-3,3.8-4,6c-0.1,0.2-0.2,0.2-0.4,0.2c-8.1,0-16.3,0-24.4,0
		c-4.5,0-9,0-13.5,0c-0.2,0-0.3-0.1-0.4-0.3c-1-2.1-2.2-3.9-3.7-5.7c-0.7-0.8-1.4-1.6-2.2-2.4c0.1,0,0.2,0,0.3,0c1.4,0,2.9,0,4.3,0
		c1.3,0,2.7,0,4-0.1c1.4-0.1,2.8-0.2,4.2-0.3c0.9-0.1,1.8-0.1,2.7-0.1c1.5-0.1,3-0.1,4.5-0.2c0.6,0,1.1-0.1,1.7-0.1
		c1.7,0,3.5-0.1,5.2,0c1.8,0,3.6,0.1,5.5,0.2c1,0,2,0.1,3.1,0.1c1.2,0.1,2.3,0.1,3.5,0.2c1.6,0.1,3.3,0.2,4.9,0.3
		c2.2,0.1,4.3,0,6.5,0.1C75.3,37.9,75.3,37.9,75.4,37.9z"/>
	<path class="st1" d="M66.1,48.9c-0.1,0.5-0.1,0.9-0.2,1.4c-0.1,0.4-0.1,0.8-0.2,1.3c0,0.2-0.1,0.4-0.3,0.5c-1.1,0.5-2.2,1-3.2,1.5
		c-0.2,0.1-0.3,0.1-0.5,0.1c-7.6,0-15.3,0-22.9,0c-0.2,0-0.3,0-0.5-0.1c-1.1-0.5-2.2-1.1-3.3-1.6c-0.1,0-0.2-0.2-0.2-0.3
		c-0.1-0.9-0.3-1.7-0.4-2.6c0-0.1,0-0.1,0-0.2C44.8,48.9,55.4,48.9,66.1,48.9z"/>
	<path class="st1" d="M76.5,60.4c0-0.7,0.6-1.3,1.4-1.3c0.8,0,1.4,0.6,1.4,1.4c0,0.7-0.7,1.4-1.4,1.3C77.1,61.8,76.5,61.2,76.5,60.4
		z"/>
	<path class="st1" d="M23.8,60.4c0,0.8-0.6,1.3-1.4,1.3c-0.8,0-1.4-0.6-1.4-1.4c0-0.7,0.6-1.3,1.4-1.4
		C23.2,59.1,23.8,59.7,23.8,60.4z"/>
</g>
</svg>
