<?xml version="1.0" encoding="utf-8"?>
<!-- Generator: Adobe Illustrator 16.0.0, SVG Export Plug-In . SVG Version: 6.00 Build 0)  -->
<!DOCTYPE svg PUBLIC "-//W3C//DTD SVG 1.1//EN" "http://www.w3.org/Graphics/SVG/1.1/DTD/svg11.dtd">
<svg version="1.1" id="Capa_1" xmlns="http://www.w3.org/2000/svg" xmlns:xlink="http://www.w3.org/1999/xlink" x="0px" y="0px"
	 width="720px" height="720px" viewBox="-117.524 -117.524 720 720" enable-background="new -117.524 -117.524 720 720"
	 xml:space="preserve">
<g display="none">
	<g id="_x31_5_38_" display="inline">
		<g>
			<path fill="#CC0033" d="M135.181,132.435h6.005c9.125,0,16.523-7.4,16.523-16.523V70.315V53.26
				c0-9.123-7.397-16.522-16.523-16.522h-6.005c-9.125,0-16.522,7.399-16.522,16.522v17.056v45.596
				C118.659,125.035,126.056,132.435,135.181,132.435z"/>
			<path fill="#CC0033" d="M347.11,132.025h6.005c9.125,0,16.522-7.399,16.522-16.523V65.988V52.85
				c0-9.123-7.397-16.521-16.522-16.521h-6.005c-9.126,0-16.523,7.399-16.523,16.521v13.138v49.514
				C330.589,124.626,337.986,132.025,347.11,132.025z"/>
			<path fill="#CC0033" d="M425.475,70.315h-42.405v49.513c0,16.517-13.438,25.627-29.952,25.627h-6.005
				c-16.517,0-29.954-13.438-29.954-29.954V70.315H171.14v45.595c0,16.517-13.437,29.955-29.954,29.955h-6.004
				c-16.516,0-29.953-13.438-29.953-29.955V70.315H59.478c-14.812,0-26.861,12.05-26.861,26.862v324.583
				c0,14.813,12.05,26.862,26.861,26.862h365.997c14.812,0,26.86-12.05,26.86-26.862V97.177
				C452.337,82.366,440.286,70.315,425.475,70.315z M425.475,421.761H59.479l-0.001-245.117h366.002l0.014,245.116
				C425.491,421.76,425.486,421.761,425.475,421.761z"/>
			<path fill="#CC0033" d="M256.343,258.863h48.23c1.912,0,3.462-1.55,3.462-3.462v-41.765c0-1.912-1.55-3.462-3.462-3.462h-48.23
				c-1.912,0-3.462,1.55-3.462,3.462v41.765C252.881,257.313,254.431,258.863,256.343,258.863z"/>
			<path fill="#CC0033" d="M335.055,258.863h48.23c1.912,0,3.462-1.55,3.462-3.462v-41.765c0-1.912-1.55-3.462-3.462-3.462h-48.23
				c-1.912,0-3.462,1.55-3.462,3.462v41.765C331.593,257.313,333.143,258.863,335.055,258.863z"/>
			<path fill="#CC0033" d="M98.922,327.236h48.23c1.912,0,3.462-1.55,3.462-3.462v-41.766c0-1.911-1.55-3.462-3.462-3.462h-48.23
				c-1.912,0-3.462,1.551-3.462,3.462v41.766C95.46,325.687,97.01,327.236,98.922,327.236z"/>
			<path fill="#CC0033" d="M177.633,327.236h48.23c1.912,0,3.462-1.55,3.462-3.462v-41.766c0-1.911-1.55-3.462-3.462-3.462h-48.23
				c-1.912,0-3.462,1.551-3.462,3.462v41.766C174.171,325.687,175.721,327.236,177.633,327.236z"/>
			<path fill="#CC0033" d="M256.344,327.236h48.229c1.912,0,3.462-1.55,3.462-3.462v-41.766c0-1.911-1.55-3.462-3.462-3.462h-48.229
				c-1.912,0-3.462,1.551-3.462,3.462v41.766C252.882,325.687,254.432,327.236,256.344,327.236z"/>
			<path fill="#CC0033" d="M335.055,327.236h48.23c1.912,0,3.462-1.55,3.462-3.462v-41.766c0-1.911-1.55-3.462-3.462-3.462h-48.23
				c-1.912,0-3.462,1.551-3.462,3.462v41.766C331.593,325.687,333.143,327.236,335.055,327.236z"/>
			<path fill="#CC0033" d="M147.152,346.921H98.923c-1.912,0-3.462,1.55-3.462,3.462v41.766c0,1.911,1.55,3.462,3.462,3.462h48.23
				c1.912,0,3.462-1.551,3.462-3.462v-41.766C150.614,348.471,149.064,346.921,147.152,346.921z"/>
			<path fill="#CC0033" d="M225.864,346.921h-48.23c-1.912,0-3.462,1.55-3.462,3.462v41.766c0,1.911,1.55,3.462,3.462,3.462h48.23
				c1.912,0,3.462-1.551,3.462-3.462v-41.766C229.326,348.471,227.776,346.921,225.864,346.921z"/>
			<path fill="#CC0033" d="M304.575,346.921h-48.23c-1.912,0-3.462,1.55-3.462,3.462v41.766c0,1.911,1.55,3.462,3.462,3.462h48.23
				c1.912,0,3.462-1.551,3.462-3.462v-41.766C308.037,348.471,306.487,346.921,304.575,346.921z"/>
			<path fill="#CC0033" d="M383.285,346.921h-48.23c-1.912,0-3.462,1.55-3.462,3.462v41.766c0,1.911,1.55,3.462,3.462,3.462h48.23
				c1.912,0,3.462-1.551,3.462-3.462v-41.766C386.747,348.471,385.197,346.921,383.285,346.921z"/>
		</g>
	</g>
</g>
<circle fill="none" stroke="#666666" stroke-width="15" stroke-miterlimit="10" cx="243.53" cy="243.53" r="352.446"/>
<g display="none">
	<path display="inline" fill="#CC0033" d="M114.538,459.904c-13.108-7.563-29.884-3.083-37.474,10.025
		c-7.562,13.125-3.062,29.902,10.046,37.468c4.315,2.5,9.04,3.689,13.696,3.689c9.471,0,18.681-4.919,23.768-13.713
		C132.144,484.246,127.659,467.472,114.538,459.904z"/>
	<path display="inline" fill="#CC0033" d="M100.314,32.021c4.672,0,9.417-1.191,13.752-3.704
		c13.088-7.605,17.554-24.399,9.945-37.489c-7.623-13.106-24.395-17.552-37.488-9.951c-13.106,7.604-17.551,24.381-9.945,37.487
		C81.667,27.126,90.855,32.021,100.314,32.021z"/>
	<path display="inline" fill="#CC0033" d="M-14.494,129.73c4.313,2.475,9.023,3.668,13.675,3.668c9.477,0,18.708-4.917,23.776-13.73
		c7.566-13.106,3.063-29.882-10.046-37.449c-13.125-7.583-29.899-3.082-37.466,10.04C-32.122,105.388-27.615,122.146-14.494,129.73z
		"/>
	<path display="inline" fill="#CC0033" d="M238.498-5.2c0.02,0,0.02,0,0.035,0c15.152-0.039,27.407-12.332,27.393-27.481
		c-0.042-15.152-12.329-27.406-27.482-27.369c-15.154,0.018-27.406,12.313-27.372,27.46C211.09-17.457,223.363-5.2,238.498-5.2z"/>
	<path display="inline" fill="#CC0033" d="M-14.248,358.794c-13.108,7.585-17.573,24.358-9.965,37.472
		c5.089,8.77,14.299,13.674,23.758,13.674c4.67,0,9.396-1.19,13.73-3.707c13.105-7.58,17.567-24.378,9.962-37.469
		C15.637,355.656-1.141,351.189-14.248,358.794z"/>
	<path display="inline" fill="#CC0033" d="M-10.201,244.256c-0.021-15.154-12.313-27.406-27.461-27.39
		c-15.148,0.019-27.406,12.311-27.387,27.442c0.02,15.152,12.292,27.407,27.426,27.407h0.015
		C-22.454,271.695-10.181,259.4-10.201,244.256z"/>
	<path display="inline" fill="#CC0033" d="M239.098,493.137c-15.127,0.021-27.406,12.295-27.406,27.442
		c0.021,15.152,12.298,27.427,27.446,27.407c15.148,0,27.424-12.295,27.405-27.444C266.547,505.41,254.256,493.137,239.098,493.137z
		"/>
	<path display="inline" fill="#CC0033" d="M492.296,358.51c-13.101-7.583-29.873-3.104-37.466,10.005
		c-7.581,13.107-3.102,29.883,10.005,37.468c4.335,2.5,9.061,3.688,13.711,3.688c9.477,0,18.688-4.896,23.755-13.694
		C509.89,382.871,505.404,366.093,492.296,358.51z"/>
	<path display="inline" fill="#CC0033" d="M515.505,215.899c-15.147,0.039-27.404,12.353-27.365,27.5c0,0.152,0,0.305,0,0.435
		c0,0.059,0,0.096,0,0.135c0,15.149,12.271,27.425,27.421,27.425c15.154,0,27.427-12.275,27.427-27.425c0-0.096,0-0.21,0-0.322
		c0-0.113,0-0.247,0-0.377C542.951,228.12,530.653,215.882,515.505,215.899z"/>
	<path display="inline" fill="#CC0033" d="M363.137,27.88c4.309,2.497,9.022,3.667,13.673,3.667c9.477,0,18.708-4.917,23.777-13.73
		c7.566-13.128,3.063-29.902-10.062-37.468c-13.128-7.547-29.906-3.045-37.451,10.083C345.513,3.556,350.012,20.334,363.137,27.88z"
		/>
	<path display="inline" fill="#CC0033" d="M363.629,459.775c-13.106,7.583-17.586,24.357-9.983,37.468
		c5.087,8.772,14.292,13.69,23.756,13.69c4.672,0,9.382-1.191,13.71-3.699c13.106-7.585,17.574-24.362,9.991-37.476
		C393.512,456.65,376.734,452.171,363.629,459.775z"/>
	<path display="inline" fill="#CC0033" d="M478.283,132.586c4.692,0,9.418-1.211,13.767-3.727
		c13.093-7.622,17.538-24.398,9.916-37.485c-7.604-13.109-24.401-17.535-37.488-9.931c-13.091,7.603-17.536,24.397-9.93,37.487
		C459.638,127.687,468.826,132.586,478.283,132.586z"/>
	<path display="inline" fill="#CC0033" d="M411.301,263.194l-144.018-9.822L252.91,42.438c-0.496-7.256-6.532-12.89-13.809-12.89
		c-7.275,0-13.301,5.634-13.802,12.89l-14.12,207.108l-23.051-1.57c-3.075-0.213-6.098,0.861-8.348,2.966
		c-2.247,2.104-3.526,5.048-3.526,8.129v30.443c0,3.083,1.28,6.023,3.526,8.125c2.065,1.93,4.784,2.998,7.594,2.998
		c0.248,0,0.5-0.008,0.754-0.024l19.661-1.342l-1.419,20.757c-0.256,3.824,1.08,7.581,3.695,10.381
		c2.614,2.8,6.276,4.39,10.111,4.39h37.855c0.016,0,0.033,0,0.041,0c7.637,0,13.832-6.192,13.832-13.833
		c0-0.673-1.771-25.955-1.771-25.955l141.174-9.624c5.838-0.399,10.372-5.248,10.372-11.098
		C421.667,268.442,417.138,263.594,411.301,263.194z"/>
</g>
<g display="none">
	<path display="inline" fill="#CC0033" d="M360.787,253.707c9.124,15.438,13.704,33.445,13.704,54.073
		c0,31.668-9.446,58.05-28.297,79.146c-18.854,21.144-46.074,33.587-81.674,37.329v54.213h-45.373v-53.934
		c-59.358-6.079-96.08-40.602-110.251-103.469l70.165-18.291c6.502,39.526,28.019,59.267,64.551,59.267
		c17.073,0,29.704-4.208,37.749-12.676c8.047-8.469,12.069-18.664,12.069-30.64c0-12.396-4.024-21.799-12.069-28.16
		c-8.045-6.407-25.96-14.501-53.699-24.324c-24.932-8.651-44.438-17.167-58.471-25.679c-14.033-8.419-25.446-20.253-34.194-35.457
		c-8.748-15.25-13.144-33.025-13.144-53.232c0-26.523,7.858-50.426,23.482-71.662c15.624-21.189,40.228-34.147,73.814-38.872V-0.523
		h45.374v41.865c50.706,6.083,83.545,34.756,98.465,86.069l-62.493,25.633c-12.208-35.176-31.015-52.764-56.554-52.764
		c-12.816,0-23.107,3.929-30.825,11.788c-7.766,7.858-11.648,17.401-11.648,28.582c0,11.414,3.742,20.162,11.227,26.289
		c7.438,6.082,23.482,13.612,47.995,22.64c26.942,9.824,48.085,19.132,63.381,27.879
		C339.41,226.202,351.618,238.318,360.787,253.707z"/>
</g>
<g display="none">
	<g display="inline">
		<path fill="#CC0033" d="M243.532-2.039c-76.828,0-139.334,62.504-139.334,139.333v79.577c0,0.904-1.116,2.428-1.993,2.72
			c-7.535,2.512-13.654,4.69-19.255,6.849c-6.68,2.576-11.718,9.978-11.718,17.22v182.846c0,7.191,5.005,14.602,11.644,17.232
			c51.357,20.352,105.41,30.668,160.655,30.668c55.246,0,109.299-10.318,160.658-30.67c6.635-2.629,11.639-10.039,11.639-17.23
			V243.66c0-7.242-5.037-14.645-11.721-17.223c-5.604-2.16-11.723-4.336-19.252-6.849c-0.873-0.292-1.988-1.816-1.988-2.721v-79.576
			C382.862,60.465,320.36-2.039,243.532-2.039z M205.581,299.35c0-20.975,16.99-37.947,37.95-37.947
			c20.955,0,37.945,16.971,37.945,37.947c0,13.897-7.836,25.534-18.973,32.13v62.739c0,10.488-8.486,18.975-18.975,18.975
			c-10.489,0-18.974-8.486-18.974-18.975v-62.739C213.419,324.884,205.581,313.247,205.581,299.35z M334.954,137.292v68.66
			c-29.98-6.452-60.738-9.718-91.41-9.721c-30.658,0-61.41,3.268-91.437,9.714v-68.653c0-50.412,41.012-91.422,91.423-91.422
			C293.938,45.869,334.954,86.88,334.954,137.292z"/>
	</g>
</g>
<path display="none" fill="#CC0033" d="M405.85,55.922c-22.546-28.208-81.104-75.946-157.583-75.946
	c-51.135,0-99.794,21.378-144.622,63.541c-0.077,0.073-0.152,0.146-0.226,0.222C59.703,88.71,65.415,130.252,72.65,182.874
	c0.445,3.236,0.896,6.518,1.343,9.849c1.198,8.943-6.628,22.738-14.198,36.08c-11.375,20.047-23.136,40.775-8.768,50.567
	c24.554,16.734,28.82,49.672,32.949,81.54c0.981,7.566,1.995,15.393,3.263,23c2.187,13.126,13.262,19.508,33.857,19.508
	c9.158,0,18.938-1.132,28.403-2.226c8.11-0.936,15.771-1.822,21.904-1.822c3.428,0,6.107,0.272,8.187,0.836
	c24.745,6.707,46.362,56.741,54.176,86.702c0.634,2.434,2.508,4.346,4.925,5.031c0.64,0.183,1.291,0.272,1.938,0.272
	c1.799,0,3.561-0.686,4.897-1.963l126.829-121.041c1.965-1.875,2.686-4.703,1.861-7.291c-11.2-35.036,12.072-69.229,32.609-99.415
	c8.963-13.17,17.427-25.607,23.215-37.859C456.742,168.129,437.508,95.533,405.85,55.922z M230.505,175.244l-4.725-7.498
	c-3.502,0.977-7.064,1.584-10.629,1.817l-1.961,8.644c-0.705,3.103-3.792,5.048-6.896,4.343l-18.108-4.111
	c-3.105-0.706-5.049-3.792-4.346-6.896l1.962-8.644c-3.116-1.75-6.065-3.835-8.804-6.227l-7.495,4.723
	c-2.693,1.696-6.252,0.889-7.949-1.805l-9.898-15.711c-1.696-2.693-0.889-6.251,1.804-7.948l7.496-4.723
	c-0.977-3.502-1.584-7.064-1.816-10.63l-8.645-1.962c-3.102-0.705-5.048-3.792-4.343-6.895l4.111-18.109
	c0.704-3.104,3.792-5.049,6.896-4.344l8.644,1.962c1.748-3.118,3.835-6.067,6.227-8.805l-4.723-7.496
	c-1.696-2.693-0.889-6.251,1.804-7.947l15.711-9.898c2.693-1.698,6.251-0.89,7.949,1.803l4.723,7.496
	c3.502-0.976,7.064-1.584,10.63-1.816l1.961-8.644c0.705-3.103,3.791-5.049,6.896-4.343l18.107,4.109
	c3.104,0.706,5.049,3.793,4.345,6.896l-1.961,8.644c3.115,1.75,6.065,3.836,8.804,6.229l7.497-4.722
	c2.692-1.696,6.25-0.89,7.949,1.804l9.896,15.711c1.699,2.693,0.889,6.252-1.803,7.949l-7.495,4.722
	c0.975,3.502,1.582,7.064,1.815,10.631l8.644,1.961c3.104,0.705,5.047,3.792,4.343,6.896l-4.111,18.108
	c-0.707,3.104-3.791,5.049-6.895,4.344l-8.644-1.962c-1.748,3.116-3.835,6.066-6.229,8.804l4.724,7.498
	c1.697,2.691,0.887,6.25-1.803,7.947l-15.713,9.898C235.757,178.744,232.199,177.936,230.505,175.244z M306.354,207.981
	l-4.815,1.293c-0.054,2.011-0.319,4.027-0.79,6.018l4.319,2.492c1.552,0.896,2.083,2.878,1.189,4.432l-5.225,9.054
	c-0.896,1.553-2.879,2.084-4.431,1.188l-4.32-2.492c-1.486,1.404-3.101,2.644-4.813,3.695l1.293,4.818
	c0.467,1.731-0.563,3.511-2.293,3.973l-10.094,2.71c-1.731,0.466-3.51-0.563-3.974-2.291l-1.293-4.82
	c-2.011-0.051-4.026-0.315-6.019-0.787l-2.491,4.319c-0.896,1.55-2.879,2.083-4.431,1.187l-9.056-5.223
	c-1.549-0.896-2.085-2.879-1.188-4.432l2.491-4.319c-1.406-1.488-2.642-3.103-3.696-4.815l-4.817,1.293
	c-1.73,0.464-3.51-0.563-3.974-2.292l-2.709-10.097c-0.465-1.73,0.563-3.51,2.293-3.974l4.817-1.293
	c0.054-2.01,0.317-4.026,0.787-6.018l-4.317-2.492c-1.552-0.895-2.085-2.88-1.189-4.432l5.224-9.054
	c0.896-1.552,2.881-2.084,4.431-1.189l4.319,2.492c1.489-1.406,3.101-2.643,4.813-3.695l-1.293-4.818
	c-0.464-1.731,0.566-3.51,2.293-3.974l10.097-2.709c1.729-0.463,3.509,0.563,3.971,2.293l1.296,4.818
	c2.008,0.052,4.026,0.317,6.019,0.789l2.489-4.319c0.897-1.552,2.881-2.084,4.433-1.189l9.053,5.223
	c1.552,0.896,2.085,2.879,1.189,4.43l-2.491,4.32c1.405,1.488,2.644,3.102,3.696,4.817l4.818-1.293
	c1.729-0.465,3.509,0.564,3.971,2.292l2.711,10.095C309.11,205.737,308.083,207.518,306.354,207.981z M377.352,134.393l-6.384,1.713
	c-0.071,2.664-0.418,5.336-1.046,7.976l5.724,3.302c2.057,1.187,2.762,3.814,1.577,5.871l-6.92,11.997
	c-1.188,2.057-3.816,2.761-5.871,1.576l-5.726-3.301c-1.972,1.863-4.112,3.502-6.382,4.897l1.716,6.384
	c0.614,2.292-0.748,4.65-3.039,5.265l-13.377,3.589c-2.293,0.616-4.652-0.744-5.267-3.038l-1.713-6.385
	c-2.664-0.07-5.336-0.418-7.975-1.044l-3.302,5.724c-1.187,2.056-3.813,2.761-5.871,1.575l-11.996-6.92
	c-2.058-1.187-2.762-3.817-1.575-5.87l3.302-5.726c-1.863-1.972-3.502-4.11-4.899-6.381l-6.381,1.713
	c-2.293,0.616-4.652-0.745-5.267-3.038l-3.588-13.376c-0.616-2.293,0.743-4.651,3.036-5.266l6.384-1.713
	c0.071-2.664,0.42-5.337,1.046-7.976l-5.726-3.302c-2.056-1.186-2.76-3.814-1.575-5.87l6.922-11.998
	c1.187-2.057,3.816-2.761,5.871-1.576l5.724,3.302c1.975-1.863,4.112-3.503,6.382-4.898l-1.711-6.384
	c-0.616-2.293,0.743-4.65,3.036-5.266l13.375-3.59c2.292-0.616,4.652,0.745,5.267,3.039l1.713,6.383
	c2.664,0.07,5.338,0.418,7.975,1.045l3.304-5.724c1.185-2.057,3.814-2.761,5.869-1.576l11.996,6.92
	c2.058,1.188,2.762,3.816,1.577,5.871l-3.304,5.724c1.863,1.972,3.505,4.11,4.899,6.382l6.384-1.713
	c2.29-0.616,4.649,0.745,5.264,3.038l3.59,13.376C381.004,131.421,379.645,133.778,377.352,134.393z"/>
<g display="none">
	<g id="banknote" display="inline">
		<path fill="#CC0033" d="M426.051,148.082L303.241,25.274c-6.089-6.091-14.92-8.535-23.283-6.472
			c-4.409,1.08-8.351,3.352-11.47,6.472c-2.788,2.788-4.888,6.238-6.092,10.095c-5.563,18.04-15.179,33.722-29.413,47.944
			c-19.01,18.998-43.769,33.391-69.963,48.606c-27.804,16.113-56.529,32.814-80.071,56.345
			c-20.005,20.029-33.624,42.308-41.607,68.17c-2.689,8.731-0.344,18.177,6.091,24.635l122.809,122.81
			c6.091,6.09,14.921,8.534,23.284,6.471c4.409-1.104,8.351-3.353,11.47-6.471c2.787-2.788,4.888-6.238,6.092-10.12
			c5.574-18.04,15.19-33.722,29.437-47.943c18.997-18.999,43.743-33.368,69.964-48.571c27.778-16.137,56.515-32.839,80.046-56.368
			c20.005-20.007,33.623-42.309,41.619-68.172C434.832,163.985,432.474,154.505,426.051,148.082z M187.619,386.501
			c-40.674-40.674-82.134-82.146-122.808-122.809C99.713,150.697,250.988,155.634,285.865,42.639
			c40.673,40.662,82.146,82.134,122.832,122.808C373.784,278.418,222.509,273.507,187.619,386.501z"/>
		<path fill="#010002" d="M280.486,201.061c-4.003-3.353-8.032-5.637-12.084-6.767c-4.028-1.129-8.058-1.584-12.134-1.289
			c-4.027,0.307-8.154,1.228-12.281,2.812c-4.126,1.609-8.277,3.353-12.452,5.379c-6.596-7.578-13.19-15.068-19.785-22.02
			c2.971-2.689,5.858-4.052,8.633-4.15c2.788-0.123,5.464,0.172,8.006,0.81c2.591,0.651,4.962,1.204,7.147,1.633
			c2.211,0.431,4.126-0.048,5.81-1.461c1.78-1.535,2.762-3.524,2.897-5.919c0.123-2.419-0.785-4.777-2.812-7.074
			c-2.591-2.972-5.711-4.777-9.457-5.441c-3.697-0.65-7.479-0.602-11.421,0.258c-3.88,0.884-7.577,2.346-11.077,4.409
			c-3.5,2.063-6.313,4.175-8.4,6.239c-0.798-0.761-1.597-1.51-2.395-2.26c-0.884-0.811-1.989-1.252-3.316-1.228
			c-1.338,0-2.444,0.577-3.352,1.633c-0.885,1.033-1.29,2.236-1.13,3.5c0.122,1.314,0.65,2.321,1.56,3.095
			c0.798,0.676,1.597,1.339,2.395,2.039c-3.145,3.794-5.736,7.982-7.774,12.404c-2.063,4.433-3.292,8.83-3.746,13.09
			c-0.479,4.298-0.024,8.228,1.29,11.876c1.314,3.672,3.746,6.791,7.295,9.739c5.784,4.8,12.587,6.839,20.483,6.385
			c7.872-0.479,16.359-2.824,25.483-7.725c7.245,8.375,14.516,16.689,21.772,24.415c-3.068,2.591-5.759,4.078-8.129,4.557
			c-2.37,0.501-4.483,0.453-6.398-0.125c-1.916-0.601-3.697-1.461-5.33-2.566c-1.633-1.13-3.242-2.087-4.852-2.873
			c-1.583-0.785-3.217-1.229-4.887-1.253c-1.671-0.023-3.452,0.786-5.417,2.469c-2.014,1.757-3.021,3.796-3.021,6.093
			c0,2.283,1.057,4.605,3.121,6.95c2.087,2.345,4.801,4.323,8.081,5.883c3.278,1.559,6.987,2.542,11.065,2.811
			c4.077,0.283,8.375-0.33,12.907-2.013c4.555-1.659,9.061-4.654,13.508-9.112c2.137,2.088,4.298,4.076,6.447,5.992
			c0.909,0.787,2.014,1.18,3.353,1.081c1.289-0.05,2.42-0.651,3.316-1.731c0.909-1.105,1.288-2.32,1.154-3.598
			c-0.123-1.29-0.65-2.283-1.535-2.997c-2.161-1.73-4.322-3.548-6.473-5.465c3.672-4.507,6.62-9.26,8.806-13.963
			c2.187-4.728,3.476-9.286,3.906-13.509c0.43-4.249-0.074-8.08-1.462-11.557C286.43,206.993,283.985,203.971,280.486,201.061z
			 M211.824,209.388c-3.475,0.147-6.508-1.007-9.161-3.574c-1.13-1.081-1.917-2.395-2.396-3.954
			c-0.503-1.559-0.675-3.266-0.478-5.133c0.172-1.842,0.724-3.77,1.682-5.711c0.909-1.94,2.26-3.881,3.979-5.759
			c6.226,6.189,12.441,12.98,18.666,20.005C219.402,207.853,215.3,209.24,211.824,209.388z M269.753,233.973
			c-1.105,2.039-2.372,3.857-3.855,5.441c-6.89-6.952-13.769-14.589-20.633-22.424c1.757-0.787,3.6-1.608,5.588-2.444
			c1.989-0.835,3.979-1.388,5.969-1.731c2.039-0.308,4.053-0.222,6.066,0.257c1.988,0.504,3.881,1.585,5.637,3.292
			c1.731,1.73,2.825,3.524,3.267,5.465c0.479,1.963,0.504,3.955,0.172,5.993C271.607,229.871,270.882,231.91,269.753,233.973z"/>
		<path fill="#010002" d="M220.985,290.464h-0.024c-7.675,5.896-15.166,12.11-22.105,19.073
			c-6.668,6.668-12.698,13.693-17.942,20.865l-8.4,11.471l0.024,0.024c-1.535,2.395-1.277,5.613,0.811,7.699
			c2.395,2.395,6.313,2.395,8.719,0c0.368-0.381,0.663-0.785,0.909-1.229l7.848-10.745c4.863-6.645,10.488-13.189,16.714-19.403
			c6.89-6.89,13.276-12.206,21.049-18.114l-0.024-0.025c0.221-0.17,0.431-0.306,0.626-0.503c2.407-2.394,2.407-6.312,0-8.708
			C226.967,288.611,223.405,288.512,220.985,290.464z"/>
		<path fill="#010002" d="M265.945,112.823c-6.424,6.423-13.386,12.207-20.606,17.721c-0.504,0.283-1.008,0.602-1.438,1.057
			c-2.42,2.419-2.42,6.361,0,8.781c2.346,2.37,6.141,2.419,8.584,0.172l0.051,0.024c7.673-5.895,15.153-12.133,22.093-19.071
			c6.668-6.669,12.686-13.669,17.941-20.841l8.4-11.52l-0.025-0.024c2.088-2.444,1.99-6.091-0.307-8.4
			c-2.42-2.419-6.336-2.419-8.756,0c-0.454,0.455-0.786,0.982-1.08,1.511l-8.154,11.175
			C277.772,100.088,272.16,106.609,265.945,112.823z"/>
	</g>
</g>
<g display="none">
	<path display="inline" fill="#CC0033" d="M82.675,423.729c-5.223,0-10.438-1.992-14.423-5.977c-7.97-7.963-7.97-20.883,0-28.846
		l319.6-319.601c7.97-7.971,20.876-7.971,28.846,0c7.97,7.962,7.97,20.882,0,28.845l-319.6,319.6
		C93.113,421.737,87.898,423.729,82.675,423.729z M439.676,345.528c0-52.496-42.704-95.199-95.2-95.199s-95.2,42.703-95.2,95.199
		s42.704,95.201,95.2,95.201S439.676,398.024,439.676,345.528z M398.876,345.528c0,29.996-24.404,54.4-54.399,54.4
		s-54.4-24.404-54.4-54.4c0-29.994,24.405-54.398,54.4-54.398S398.876,315.534,398.876,345.528z M235.676,141.53
		c0-52.496-42.705-95.2-95.2-95.2c-52.496,0-95.2,42.704-95.2,95.2s42.704,95.2,95.2,95.2
		C192.971,236.729,235.676,194.026,235.676,141.53z M194.875,141.53c0,29.995-24.405,54.4-54.4,54.4
		c-29.995,0-54.4-24.405-54.4-54.4s24.405-54.4,54.4-54.4C170.47,87.129,194.875,111.536,194.875,141.53z"/>
</g>
<path display="none" fill="#CC0033" d="M252.966,48.854c-85.296,0-154.678,69.39-154.678,154.688
	c0,17.563,14.236,31.802,31.796,31.802c17.57,0,31.807-14.241,31.807-31.802c0-50.219,40.854-91.082,91.075-91.082
	c50.24,0,91.092,40.863,91.092,91.082c0,50.229-40.855,91.092-91.092,91.092c-17.561,0-31.797,14.24-31.797,31.801v110.773
	c0,17.566,14.236,31.803,31.797,31.803c17.561,0,31.809-14.236,31.809-31.803v-82.293c70.086-14.705,122.889-76.979,122.889-151.376
	C407.663,118.244,338.271,48.854,252.966,48.854z"/>
<g>
	<path fill="#CC0033" d="M463.572,153.927c-0.344-0.393-0.623-0.776-1.027-1.158l-17.686-17.066
		c14.668-3.329,30.463-15.618,30.463-28.228c0-14.688-20.4-19.904-37.783-19.904c-18.209,0-20.322,12.469-20.523,21.276
		L371.385,64.85c-9.277-9.18-26.861-16.403-40.021-16.403h-88.869h-0.02h-88.899c-13.139,0-30.713,7.223-39.988,16.403
		l-45.633,43.997c-0.23-8.807-2.344-21.276-20.521-21.276c-17.414,0-37.786,5.216-37.786,19.904
		c0,12.61,15.795,24.899,30.461,28.228l-17.684,17.066c-0.403,0.381-0.684,0.765-1.026,1.158
		C2.474,170.098-9.889,200.096-9.889,221.861v64.686c0,15.703,6.198,29.947,16.196,40.571v25.08
		c0,14.668,12.273,26.628,27.384,26.628h33.097c15.111,0,27.384-11.94,27.384-26.628v-6.419h148.303h0.02h148.305v6.419
		c0,14.688,12.254,26.628,27.383,26.628h33.1c15.109,0,27.361-11.96,27.361-26.628v-25.08
		c10.018-10.624,16.197-24.868,16.197-40.571v-64.686C494.859,200.096,482.484,170.098,463.572,153.927z M130.347,84.402
		c6.417-5.347,17.635-9.406,23.228-9.406h88.899h0.02h88.891c5.594,0,16.822,4.059,23.238,9.406l59.838,57.996H242.494h-0.02H70.51
		L130.347,84.402z M10.643,212.077c0-15.93,12.464-28.856,27.857-28.856c15.37,0,65.63,29.507,65.63,45.432
		c0,15.924-50.26,12.232-65.63,12.232C23.107,240.885,10.643,228.007,10.643,212.077z M94.171,317.42h-5.301h-5.303L52.1,317.471
		c-8.742-2.727-14.909-5.896-19.254-9.306c-2.214-1.72-3.903-3.51-5.211-5.29c-1.329-1.812-2.305-3.582-2.938-5.354
		c-3.904-11.064,4.185-21.226,4.185-21.226h53.701l35.813,41.104L94.171,317.42L94.171,317.42z M319.713,317.441h-77.219h-0.02
		h-77.219c-16.098,0-29.175-13.078-29.175-29.164h106.394h0.02h106.393C348.887,304.384,335.811,317.441,319.713,317.441z
		 M326.494,268.368h-84h-0.02h-84c-17.503,0-31.729-21.588-31.729-48.217h115.729h0.02h115.73
		C358.225,246.789,344,268.368,326.494,268.368z M460.273,297.543c-0.645,1.771-1.611,3.54-2.939,5.341
		c-1.307,1.78-2.996,3.572-5.211,5.292c-4.344,3.41-10.523,6.609-19.252,9.306l-31.467-0.051h-5.313h-5.293h-24.244l35.832-41.104
		h53.701C456.088,276.315,464.176,286.457,460.273,297.543z M446.469,240.885c-15.369,0-65.629,3.672-65.629-12.232
		c0-15.905,50.26-45.432,65.629-45.432c15.393,0,27.85,12.927,27.85,28.856C474.318,227.987,461.861,240.885,446.469,240.885z"/>
</g>
</svg>
